<?xml version="1.0" encoding="UTF-8"?>
<svg id="Capa_1" data-name="Capa 1" xmlns="http://www.w3.org/2000/svg" viewBox="0 0 36 36">
  <defs>
    <style>
      .cls-1 {
        fill: #fff;
      }

      .cls-2 {
        fill: none;
        stroke: #000;
        stroke-miterlimit: 10;
        stroke-width: .76px;
      }

      .cls-3 {
        fill: #00e3ff;
      }
    </style>
  </defs>
  <rect class="cls-1" width="36" height="36"/>
  <g>
    <circle class="cls-2" cx="18" cy="18" r="13.93"/>
    <path class="cls-3" d="M26.6,13.44l-3.41,3.64c-.14.15-.46.09-.71-.15h0c-.25-.23-.34-.55-.19-.7l3.41-3.64c.14-.15.46-.09.71.15h0c.25.23.34.55.19.7Z"/>
    <path d="M18,21.58h0c-.34,0-.62-.16-.62-.35v-12.44c0-.19.28-.35.62-.35h0c.34,0,.62.16.62.35v12.44c0,.19-.28.35-.62.35Z"/>
    <path class="cls-3" d="M17.43,27.56c-3.89,0-7.51-2.18-9.34-5.62-.13-.25-.03-.56.23-.68h0c.24-.11.52-.01.65.22,1.76,3.33,5.38,5.35,9.17,5.07,5-.38,8.87-4.64,8.83-9.6,0-.26.2-.49.47-.5h0c.28-.02.52.21.52.49.04,5.48-4.23,10.18-9.75,10.6-.26.02-.52.03-.78.03Z"/>
  </g>
</svg>